<svg width="129" height="60" viewBox="0 0 129 60" fill="none" xmlns="http://www.w3.org/2000/svg">
<g clip-path="url(#clip0_610_2781)">
<path d="M51.7095 22.1178H52.3585C54.3068 22.1525 56.2422 21.7941 58.049 21.0641C59.6654 20.3993 61.0381 19.253 61.9806 17.7808C62.9379 16.2943 63.4165 14.349 63.4165 11.9448C63.4165 9.97122 63.1135 8.34367 62.5073 7.06211C61.9658 5.86615 61.1545 4.81205 60.1371 3.98261C59.2101 3.23488 58.1446 2.67752 57.0018 2.34252C55.9435 2.02648 54.8456 1.86281 53.7411 1.85645H45.4609V28.5998H51.7001L51.7095 22.1178ZM51.7095 6.79869H53.0451C54.3682 6.79869 55.337 7.21264 55.9421 8.03425C56.5472 8.85587 56.8544 10.1353 56.8544 11.8632C56.8544 13.6758 56.5409 15.0065 55.9139 15.8553C55.2868 16.7041 54.3212 17.1295 53.0169 17.1316H51.722L51.7095 6.79869Z" fill="white"/>
<path d="M79.4598 23.2122H72.371V1.85645H66.1318V28.5998H67.3483H72.371H79.4598V23.2122Z" fill="white"/>
<path d="M95.0986 1.85645H85.4169L80.4727 28.5998H86.9971L87.5834 24.1467H92.6343L93.1955 28.6029H100.015L95.0986 1.85645ZM88.1007 20.1704L89.869 6.71716H90.4365L92.1295 20.1704H88.1007Z" fill="white"/>
<path d="M112.722 1.85645L109.724 15.9556H109.361L106.16 1.85645H98.4219L105.997 20.0104V28.5998H112.599V20.0104L119.892 1.85645H112.722Z" fill="white"/>
<path d="M57.817 53.314H57.3311L53.6848 33.2534H44.7305V59.9999H50.5244L50.2015 39.2932H50.6875L54.7382 59.9999H60.5321L64.5829 39.2932H65.1096L64.7459 59.9999H70.4176V33.2534H61.4633L57.817 53.314Z" fill="white"/>
<path d="M77.67 33.241L72.7383 60H79.2627L79.849 55.5407H84.8999L85.4611 60H92.2678L87.3517 33.241H77.67ZM80.3569 51.558L82.1252 38.1048H82.6927L84.3857 51.558H80.3569Z" fill="white"/>
<path d="M107.163 34.8089C105.592 33.764 103.742 33.2176 101.855 33.241H94.5625V59.9874H102.341C103.05 59.9704 103.756 59.8822 104.448 59.724C105.359 59.5197 106.233 59.1781 107.041 58.7111C108.014 58.1434 108.874 57.399 109.574 56.5159C110.458 55.3697 111.112 54.063 111.499 52.6681C111.986 51.0751 112.229 49.089 112.227 46.7098C112.227 43.8227 111.774 41.3777 110.869 39.3749C110.095 37.53 108.809 35.9455 107.163 34.8089ZM105.561 51.3824C105.279 52.6368 104.852 53.5775 104.285 54.1577C104.011 54.4498 103.678 54.6803 103.309 54.8339C102.939 54.9874 102.541 55.0605 102.14 55.0483H100.802V38.1989H101.937C102.589 38.1668 103.236 38.3358 103.789 38.6829C104.342 39.03 104.776 39.5386 105.031 40.14C105.414 40.9657 105.66 41.8479 105.762 42.7523C105.923 44.0368 105.997 45.3307 105.984 46.6252C106.016 48.2236 105.874 49.8209 105.561 51.3887V51.3824Z" fill="white"/>
<path d="M129 38.2396V33.2534H121.748H119.763H115.468V59.9999H119.763H121.748H129V55.0137H121.748V48.6948H127.905V44.0724H121.748V38.2396H129Z" fill="white"/>
<path d="M37.4976 36.7283H0V46.7319H37.4976V36.7283Z" fill="white"/>
<path d="M37.4976 49.9963H0V60H37.4976V49.9963Z" fill="white"/>
<path d="M33.5734 22.191C36.9648 14.0017 33.0767 4.61312 24.8892 1.221C16.7017 -2.17112 7.3152 1.71777 3.92383 9.90707C0.532454 18.0964 4.42048 27.485 12.608 30.8771C20.7955 34.2692 30.182 30.3803 33.5734 22.191Z" fill="white"/>
</g>
<defs>
<clipPath id="clip0_610_2781">
<rect width="129" height="60" fill="white"/>
</clipPath>
</defs>
</svg>
